<?xml version="1.0" encoding="utf-8"?>
<!-- Generator: Adobe Illustrator 16.0.0, SVG Export Plug-In . SVG Version: 6.00 Build 0)  -->
<!DOCTYPE svg PUBLIC "-//W3C//DTD SVG 1.1//EN" "http://www.w3.org/Graphics/SVG/1.1/DTD/svg11.dtd">
<svg version="1.1" id="Layer_1" xmlns="http://www.w3.org/2000/svg" xmlns:xlink="http://www.w3.org/1999/xlink" x="0px" y="0px"
	 width="33px" height="46.5px" viewBox="-0.375 10.125 33 46.5" enable-background="new -0.375 10.125 33 46.5"
	 xml:space="preserve">
<path fill="none" stroke="#FFFFFF" stroke-width="5" stroke-miterlimit="10" d="M30.125,23.189v20.457
	c0,5.646-6.241,10.229-13.938,10.229c-7.693,0-13.938-4.582-13.938-10.229V23.189c0-5.647,6.244-10.229,13.938-10.229
	C23.884,12.961,30.125,17.542,30.125,23.189z"/>
<path id="middle-mouse" fill="#FFFFFF" stroke="#FFFFFF" stroke-width="3" stroke-miterlimit="10" d="M16.856,33.835
	c0,0.272-0.3,0.491-0.669,0.491l0,0c-0.369,0-0.669-0.219-0.669-0.491v-8.834c0-0.271,0.3-0.491,0.669-0.491l0,0
	c0.369,0,0.669,0.221,0.669,0.491V33.835z">

	<animateTransform id="middle-mouse-bump"
		attributeName="transform"
		attributeType="XML"
		type="translate"
		dur="1.5s"
		values="0,4;0,-4;0,4;"
		repeatCount="indefinite"/>

</path>
</svg>
