<svg version="1.1" id="Layer_1" xmlns="http://www.w3.org/2000/svg" xmlns:xlink="http://www.w3.org/1999/xlink" x="0px" y="0px"
	 width="21px" height="41px" viewBox="0 0 21 41" style="enable-background:new 0 0 21 41;" xml:space="preserve">


<style type="text/css">
<![CDATA[
	.st0{fill:#FFFFFF;stroke:#000000;stroke-miterlimit:10;}
]]>

#mouse-middle {
	fill:#ffffff;
}
</style>
<path class="st0" d="M20.5,10.5v20c0,5.52-4.479,10-10,10c-5.52,0-10-4.48-10-10v-20c0-5.521,4.48-10,10-10
	C16.021,0.5,20.5,4.979,20.5,10.5z"/>
<path id="middle-mouse" class="st0" d="M11,25c0,0.277-0.224,0.5-0.5,0.5l0,0c-0.276,0-0.5-0.223-0.5-0.5v-9c0-0.276,0.224-0.5,0.5-0.5l0,0
	c0.276,0,0.5,0.224,0.5,0.5V25z"/>
</svg>
